<svg viewBox="0 0 128 128" fill="none" xmlns="http://www.w3.org/2000/svg">
  <path class="character-k" d="M61.172 2.828a4 4 0 0 1 5.656 0l10.344 10.344a4 4 0 0 1 0 5.656L16 80 2.828 66.828a4 4 0 0 1 0-5.656L61.172 2.828Z"/>
  <path class="character-k" d="M2.828 66.828a4 4 0 0 1 0-5.656L16 48l61.172 61.172a3.999 3.999 0 0 1 0 5.656l-10.344 10.344a4 4 0 0 1-5.656 0L2.828 66.828Z"/>
  <path d="M61.172 2.828a4 4 0 0 1 5.656 0l10.344 10.344a4 4 0 0 1 0 5.656L48 48 32 32 61.172 2.828ZM77.171 109.172a3.999 3.999 0 0 1 0 5.656l-10.343 10.344a4 4 0 0 1-5.657 0L32 96l16-16 29.171 29.172ZM93.171 61.172a4 4 0 0 1 0 5.656L80 80 48 48l16-16 29.171 29.172Z" fill="#90caf9"/>
  <path d="m80 48 13.171 13.172a4 4 0 0 1 0 5.656L64 96 48 80l32-32Z" fill="#90caf9"/>
  <style>
      .character-k { fill: #030712; }
      @media (prefers-color-scheme: light) {
        .character-k { fill: #fff; }
      }
  </style>
</svg>
