<svg viewBox="0 0 1080 1080" fill="none" xmlns="http://www.w3.org/2000/svg">
  <path d="M617.084 83.535a5 5 0 0 1 7.071 0L731.989 191.37a5.001 5.001 0 0 1 0 7.071L275.905 654.524 164.536 543.155a5 5 0 0 1 0-7.071L617.084 83.536Z" fill="#fff" />
  <path d="M164.536 543.155a5 5 0 0 1 0-7.071l111.369-111.369 456.084 456.083a5.001 5.001 0 0 1 0 7.071L624.155 995.703a5 5 0 0 1-7.071 0L164.536 543.155Z" fill="#fff" />
  <path d="M617.084 83.535a5 5 0 0 1 7.071 0L731.989 191.37a5.001 5.001 0 0 1 0 7.071L505.715 424.715 390.81 309.81 617.084 83.536Zm114.905 797.263a5.001 5.001 0 0 1 0 7.071L624.155 995.703a5 5 0 0 1-7.071 0L390.81 769.429l114.905-114.905 226.274 226.274Z" fill="#90caf9" />
  <path d="M846.894 536.084a5.001 5.001 0 0 1 0 7.071l-111.37 111.369-229.809-229.809L620.619 309.81l226.275 226.274Z" fill="#90caf9" />
  <path d="m735.524 424.715 111.37 111.369a5.001 5.001 0 0 1 0 7.071L620.619 769.429 505.715 654.524l229.809-229.809Z" fill="#90caf9" />
</svg>