<svg viewBox="0 0 690 920" xmlns="http://www.w3.org/2000/svg">
  <path d="M208.71 252.536a5 5 0 0 1 7.071 0l107.834 107.833a5 5 0 0 1 0 7.071L115.018 576.037 3.649 464.668a5.001 5.001 0 0 1 0-7.072l205.061-205.06Z" fill="#1f2937"></path>
  <path d="M3.65 464.44a5 5 0 0 1 0-7.071L115.017 346l208.597 208.596a5.002 5.002 0 0 1 0 7.072L215.781 669.501a5 5 0 0 1-7.071 0L3.65 464.44ZM456.198 4.536a5 5 0 0 1 7.071 0l107.834 107.833a5 5 0 0 1 0 7.071L344.829 345.715l-111.37-111.37a5.001 5.001 0 0 1 0-7.071L456.198 4.536ZM571.103 801.798a5 5 0 0 1 0 7.071L463.269 916.703a5 5 0 0 1-7.071 0L229.924 690.429l114.905-114.905 226.274 226.274ZM686.008 457.084a5 5 0 0 1 0 7.071L574.639 575.524l-229.81-229.809L459.734 230.81l226.274 226.274Z" fill="#1f2937"></path>
  <path d="m574.638 345.715 111.37 111.369a5.001 5.001 0 0 1 0 7.071L459.734 690.429 344.829 575.524l229.809-229.809Z" fill="#1f2937"></path>
</svg>